<?xml version="1.0" encoding="UTF-8" standalone="no"?>
<!-- Created with Inkscape (http://www.inkscape.org/) -->

<svg
   xmlns:dc="http://purl.org/dc/elements/1.1/"
   xmlns:cc="http://creativecommons.org/ns#"
   xmlns:rdf="http://www.w3.org/1999/02/22-rdf-syntax-ns#"
   xmlns:svg="http://www.w3.org/2000/svg"
   xmlns="http://www.w3.org/2000/svg"
   xmlns:sodipodi="http://sodipodi.sourceforge.net/DTD/sodipodi-0.dtd"
   xmlns:inkscape="http://www.inkscape.org/namespaces/inkscape"
   width="88.818573mm"
   height="83.116501mm"
   viewBox="0 0 314.71148 294.50729"
   id="svg2"
   version="1.1"
   inkscape:version="0.91 r13725"
   sodipodi:docname="logo-shaded.svg"
   inkscape:export-filename="/Users/robbaines/Pictures/logo-shaded.png"
   inkscape:export-xdpi="299.96201"
   inkscape:export-ydpi="299.96201">
  <defs
     id="defs4" />
  <sodipodi:namedview
     id="base"
     pagecolor="#ffffff"
     bordercolor="#666666"
     borderopacity="1.0"
     inkscape:pageopacity="0.0"
     inkscape:pageshadow="2"
     inkscape:zoom="4.3006618"
     inkscape:cx="134.36507"
     inkscape:cy="122.58578"
     inkscape:document-units="px"
     inkscape:current-layer="layer1"
     showgrid="false"
     fit-margin-top="0"
     fit-margin-left="0"
     fit-margin-right="0"
     fit-margin-bottom="0"
     inkscape:window-width="2323"
     inkscape:window-height="1312"
     inkscape:window-x="1507"
     inkscape:window-y="0"
     inkscape:window-maximized="0" />
  <metadata
     id="metadata7">
    <rdf:RDF>
      <cc:Work
         rdf:about="">
        <dc:format>image/svg+xml</dc:format>
        <dc:type
           rdf:resource="http://purl.org/dc/dcmitype/StillImage" />
        <dc:title></dc:title>
      </cc:Work>
    </rdf:RDF>
  </metadata>
  <g
     inkscape:groupmode="layer"
     id="layer3"
     inkscape:label="colours"
     sodipodi:insensitive="true">
    <path
       style="opacity:1;fill:#ffffff;fill-opacity:1;stroke:#ffffff;stroke-width:0;stroke-miterlimit:4;stroke-dasharray:none;stroke-opacity:1"
       d="m 264.11027,11.039421 c -8.22718,-0.142725 -14.14269,7.687068 -13.9302,15.41094 -3.4609,1.632896 -7.91079,1.015036 -11.37707,0.924143 0.53045,-4.425678 -4.01618,-6.51114 -7.77732,-5.550904 -10.97088,1.728886 -22.1595,3.323473 -32.67924,6.910648 -4.21046,2.308344 -3.27474,9.090713 -8.65457,10.015825 -4.76949,1.699452 -10.54785,0.631515 -13.05039,-4.172619 -2.71249,-4.179967 -7.60559,-6.144964 -12.45049,-4.857052 -6.80002,0.81841 -11.48303,7.021892 -12.35719,13.438631 -5.25311,3.693969 -13.9922,5.723178 -18.73694,0.473415 -2.57032,-4.731059 -8.82319,-1.211678 -12.8168,-0.995178 -4.8918,1.632398 -11.3749,0.903481 -15.06326,4.932235 -1.77155,4.592969 3.82609,4.832868 6.56277,6.092381 4.74883,2.841814 8.87161,7.770455 7.87412,13.665506 -0.56377,18.942261 -7.89329,37.284468 -19.57486,52.219708 -18.399306,24.93386 -37.305524,49.5061 -59.107305,71.61436 -16.034635,17.28981 -29.838106,37.16377 -38.1772008,59.32153 -3.01915247,11.075 -4.4356717,23.96553 1.090518,34.48366 2.5110634,3.08465 6.1936238,5.34888 9.9144878,6.68227 13.461056,1.24117 27.887949,-1.00719 39.16336,-8.87994 12.884465,-10.33974 20.644306,-25.24089 28.819318,-39.2284 3.102301,-2.18505 7.853672,-1.16611 11.557166,-2.09902 34.238686,-3.24783 68.652966,-7.48449 102.291536,-14.56274 3.20226,-2.86401 2.86745,-8.29216 5.64999,-11.79153 12.76279,-20.81584 28.97373,-39.25849 44.08705,-58.36556 20.04877,-25.46241 42.94558,-48.86432 60.02749,-76.5423 8.63961,-13.916821 10.78707,-31.029071 9.33564,-47.086136 -1.47617,-8.238054 -7.96501,-16.015694 -16.10972,-18.219666 -3.37089,-0.693652 -5.35168,2.574232 -5.91542,5.213613 -4.91984,3.029814 -12.27868,3.357354 -15.90402,-1.852822 -3.28603,-3.835703 -7.15607,-7.77983 -12.69145,-7.194998 z m -3.74799,39.284361 c 10.40707,-0.110053 22.9313,3.700048 26.5929,14.557886 5.19227,13.920471 1.17006,31.978025 -12.39046,39.579302 -11.4479,6.82449 -25.60184,4.89597 -37.92915,3.47725 -3.91367,-1.12736 -9.65898,-4.12584 -12.24375,0.90297 -2.45724,3.96545 2.15829,6.86631 5.68249,6.66713 6.09032,3.52013 5.6186,14.99477 -2.41698,15.77243 -4.97038,1.78849 -10.61048,1.00736 -15.34288,3.21559 -4.00235,8.87405 -7.79329,19.64078 -17.88541,23.02642 -5.39646,1.12015 -11.78716,3.24514 -17.0384,0.73508 -3.63365,-3.54385 -0.12955,-9.06126 1.34613,-12.96219 1.29134,-3.39179 5.53856,-9.52005 0.31159,-11.57976 -3.15404,-0.51052 -9.234,-0.80217 -8.9722,-5.16521 0.51476,-3.58873 3.97654,-10.37794 -1.99332,-10.64924 -9.29951,-0.80138 -19.06115,0.8968 -28.05416,-1.94239 -5.99559,-2.21319 -11.72468,-7.38203 -10.51646,-14.43991 0.33566,-14.53783 9.04354,-27.524794 20.68656,-35.694973 13.06123,-9.59764 30.44054,-9.06431 45.39036,-5.909574 5.86568,1.1645 11.931,4.94077 12.07737,11.58732 1.50593,7.785369 -1.99998,15.137552 -3.15358,22.627115 0.45533,6.188212 8.22004,4.687653 12.41467,4.858177 5.44139,-1.71776 1.75734,-8.452829 2.52286,-12.730779 0.76449,-11.704882 8.09957,-22.573784 17.68424,-29.058297 6.91656,-4.369597 15.02353,-6.900933 23.22758,-6.874347 z"
       id="path5793"
       inkscape:connector-curvature="0" />
    <path
       style="opacity:1;fill:#ffffff;fill-opacity:1;stroke:#ffffff;stroke-width:0;stroke-miterlimit:4;stroke-dasharray:none;stroke-opacity:1"
       d="m 264.11027,11.039421 c -8.22718,-0.142725 -14.14269,7.687068 -13.9302,15.41094 -3.4609,1.632896 -7.91079,1.015036 -11.37707,0.924143 0.53045,-4.425678 -4.01618,-6.51114 -7.77732,-5.550904 -10.97088,1.728886 -22.1595,3.323473 -32.67924,6.910648 -4.21046,2.308344 -3.27474,9.090713 -8.65457,10.015825 -4.76949,1.699452 -10.54785,0.631515 -13.05039,-4.172619 -2.71249,-4.179967 -7.60559,-6.144964 -12.45049,-4.857052 -6.80002,0.81841 -11.48303,7.021892 -12.35719,13.438631 -5.25311,3.693969 -13.9922,5.723178 -18.73694,0.473415 -2.57032,-4.731059 -8.82319,-1.211678 -12.8168,-0.995178 -4.8918,1.632398 -11.3749,0.903481 -15.06326,4.932235 -1.77155,4.592969 3.82609,4.832868 6.56277,6.092381 4.74883,2.841814 8.87161,7.770455 7.87412,13.665506 -0.56377,18.942261 -7.89329,37.284468 -19.57486,52.219708 -18.399306,24.93386 -37.305524,49.5061 -59.107305,71.61436 -16.034635,17.28981 -29.838106,37.16377 -38.1772008,59.32153 -3.01915247,11.075 -4.4356717,23.96553 1.090518,34.48366 2.5110634,3.08465 6.1936238,5.34888 9.9144878,6.68227 13.461056,1.24117 27.887949,-1.00719 39.16336,-8.87994 12.884465,-10.33974 20.644306,-25.24089 28.819318,-39.2284 3.102301,-2.18505 7.853672,-1.16611 11.557166,-2.09902 34.238686,-3.24783 68.652966,-7.48449 102.291536,-14.56274 3.20226,-2.86401 2.86745,-8.29216 5.64999,-11.79153 12.76279,-20.81584 28.97373,-39.25849 44.08705,-58.36556 20.04877,-25.46241 42.94558,-48.86432 60.02749,-76.5423 8.63961,-13.916821 10.78707,-31.029071 9.33564,-47.086136 -1.47617,-8.238054 -7.96501,-16.015694 -16.10972,-18.219666 -3.37089,-0.693652 -5.35168,2.574232 -5.91542,5.213613 -4.91984,3.029814 -12.27868,3.357354 -15.90402,-1.852822 -3.28603,-3.835703 -7.15607,-7.77983 -12.69145,-7.194998 z m -3.74799,39.284361 c 10.40707,-0.110053 22.9313,3.700048 26.5929,14.557886 5.19227,13.920471 1.17006,31.978025 -12.39046,39.579302 -11.4479,6.82449 -25.60184,4.89597 -37.92915,3.47725 -3.91367,-1.12736 -9.65898,-4.12584 -12.24375,0.90297 -2.45724,3.96545 2.15829,6.86631 5.68249,6.66713 6.09032,3.52013 5.6186,14.99477 -2.41698,15.77243 -4.97038,1.78849 -10.61048,1.00736 -15.34288,3.21559 -4.00235,8.87405 -7.79329,19.64078 -17.88541,23.02642 -5.39646,1.12015 -11.78716,3.24514 -17.0384,0.73508 -3.63365,-3.54385 -0.12955,-9.06126 1.34613,-12.96219 1.29134,-3.39179 5.53856,-9.52005 0.31159,-11.57976 -3.15404,-0.51052 -9.234,-0.80217 -8.9722,-5.16521 0.51476,-3.58873 3.97654,-10.37794 -1.99332,-10.64924 -9.29951,-0.80138 -19.06115,0.8968 -28.05416,-1.94239 -5.99559,-2.21319 -11.72468,-7.38203 -10.51646,-14.43991 0.33566,-14.53783 9.04354,-27.524794 20.68656,-35.694973 13.06123,-9.59764 30.44054,-9.06431 45.39036,-5.909574 5.86568,1.1645 11.931,4.94077 12.07737,11.58732 1.50593,7.785369 -1.99998,15.137552 -3.15358,22.627115 0.45533,6.188212 8.22004,4.687653 12.41467,4.858177 5.44139,-1.71776 1.75734,-8.452829 2.52286,-12.730779 0.76449,-11.704882 8.09957,-22.573784 17.68424,-29.058297 6.91656,-4.369597 15.02353,-6.900933 23.22758,-6.874347 z"
       id="path5795"
       inkscape:connector-curvature="0" />
    <path
       style="opacity:1;fill:#8fe3e5;fill-opacity:1;stroke:#ffffff;stroke-width:0;stroke-miterlimit:4;stroke-dasharray:none;stroke-opacity:1"
       d="m 264.33622,11.124147 c -8.71136,0.105932 -12.61377,8.842397 -14.85283,15.72403 -3.93604,1.121073 -11.92472,3.881807 -12.74438,-2.323212 -7.45535,-5.681227 -17.84605,0.98096 -26.07705,1.329369 -7.21627,0.977198 -15.40082,3.288209 -17.42873,11.173019 -6.04972,4.83595 -15.51141,3.17128 -18.79442,-4.141245 -8.01003,-8.027356 -20.73967,1.140802 -22.67551,10.315301 -5.85182,5.77084 -15.94396,3.973529 -21.98279,-0.556603 -7.48096,-0.03473 -16.64819,0.385108 -22.66039,5.075976 -0.94502,5.952788 8.65774,5.490049 10.2725,10.990438 5.72628,7.715261 2.53106,18.51914 1.4128,27.263097 -7.51186,29.066143 -30.267788,51.163463 -47.714295,74.426263 -24.16738,30.50691 -58.476411,56.09007 -68.7633276,95.15574 -1.36032824,10.20431 -3.6957155,23.5134 4.1168389,31.664 4.4684627,3.31123 10.0485847,4.8585 15.9872067,3.94765 16.455296,0.75667 31.726061,-7.56178 41.533459,-20.50053 8.330842,-7.9242 10.452652,-21.00216 19.937876,-27.50042 23.929582,-4.93382 49.070772,-5.5679 73.345612,-9.93356 13.03247,-2.57975 25.97136,-3.77494 38.308,-8.21059 6.73649,-19.98352 23.01136,-35.1816 34.90828,-52.09076 18.02992,-23.29489 38.57408,-44.36367 56.37731,-67.82981 0.91084,-4.03052 6.69017,-6.19893 8.58802,-10.560331 14.7387,-17.982843 23.57707,-42.944434 17.34846,-65.957434 -2.38856,-8.768194 -14.58869,-17.630401 -21.31426,-7.789414 -6.81407,3.248044 -14.23376,-0.04263 -18.55243,-5.744504 -2.47851,-1.85711 -5.29157,-4.077982 -8.5759,-3.92647 z m -3.34567,39.137648 c 13.24508,-0.994545 27.79315,7.840072 27.75753,22.273187 1.78694,9.531647 -1.95041,18.526844 -5.54484,26.995237 -1.37237,3.054791 -8.33485,3.722741 -11.46482,6.461431 -12.0054,4.92008 -25.5933,2.94501 -38.06678,1.44898 -5.39323,-4.59938 -13.92659,4.62741 -5.70821,7.13904 8.35201,1.12518 9.09734,14.99533 0.39628,16.66178 -7.16208,2.1792 -17.03023,1.63088 -19.23713,10.82557 -4.07235,13.00104 -19.63535,20.98133 -32.3424,16.23925 -4.74786,-8.09798 6.84609,-17.01402 3.51494,-24.10642 -4.35903,0.17157 -11.95204,-1.5212 -10.09435,-7.9043 5.00678,-10.46132 -8.17666,-8.5268 -14.46562,-8.31879 -9.95213,0.62509 -25.49877,-1.75491 -26.32672,-14.25387 -0.86902,-25.28734 23.73599,-48.846618 49.19276,-45.51322 9.86117,0.564567 26.04677,-1.129341 29.03716,11.548349 2.29482,8.987635 -4.56008,19.922949 0.88935,27.936016 5.16041,3.650835 13.11167,0.135693 10.93544,-6.76696 -2.5843,-22.803274 19.71996,-41.573405 41.52741,-40.66528 z"
       id="path5925"
       inkscape:connector-curvature="0"
       sodipodi:nodetypes="ccccccccccccccccccccccccccccccccccccccccccccc" />
    <path
       style="opacity:1;fill:#ffffff;fill-opacity:1;stroke:#ffffff;stroke-width:0;stroke-miterlimit:4;stroke-dasharray:none;stroke-opacity:1"
       d="m 171.11129,56.154525 c -24.56857,0.798855 -46.72697,25.963481 -43.00059,50.557075 3.20824,14.05356 21.15654,13.84797 32.54497,13.47076 13.31406,1.14404 23.88799,-7.38939 32.87401,-15.99664 7.07682,-4.02872 14.56001,-9.132872 15.2733,-18.122869 1.9811,-10.389665 1.56796,-26.724578 -12.02746,-28.359518 -8.42831,-1.576427 -17.11949,-1.51812 -25.66423,-1.548808 z m -2.35951,43.257719 c 6.71476,0.375954 -2.98519,11.379706 -5.36033,6.884936 -0.22103,-3.23866 1.33751,-7.632163 5.36033,-6.884936 z"
       id="path5927"
       inkscape:connector-curvature="0" />
    <path
       style="opacity:1;fill:#ffffff;fill-opacity:1;stroke:#ffffff;stroke-width:0;stroke-miterlimit:4;stroke-dasharray:none;stroke-opacity:1"
       d="m 260.5528,48.320172 c -20.36985,-0.623941 -40.15376,14.343618 -42.95912,34.750939 -4.04698,15.501203 12.12837,28.299939 26.45376,28.072139 16.16614,1.52491 36.2084,-1.07696 43.86272,-17.714486 8.61205,-15.473854 2.54438,-43.861298 -16.15056,-43.820372 -3.80249,-1.094243 -7.25478,-1.311237 -11.2068,-1.28822 z m -4.3811,49.355712 c 1.11998,4.560966 -5.92197,3.250026 -5.58115,0.381153 1.22761,-1.256342 6.2388,-2.996448 5.58115,-0.381153 z"
       id="path5929"
       inkscape:connector-curvature="0"
       sodipodi:nodetypes="ccccccccc" />
    <path
       style="opacity:1;fill:#ffffff;fill-opacity:1;stroke:#ffffff;stroke-width:0;stroke-miterlimit:4;stroke-dasharray:none;stroke-opacity:1"
       d="m 203.03428,130.66973 c -9.54085,2.90652 -10.46442,15.73742 -15.09462,23.17775 -4.09293,5.54988 3.05789,9.02157 7.41713,5.79887 9.44818,-3.10843 16.22444,-13.1911 17.24864,-22.64829 -1.41079,-3.46271 -5.815,-6.31304 -9.57115,-6.32833 z"
       id="path5933"
       inkscape:connector-curvature="0" />
    <path
       style="opacity:1;fill:#ffffff;fill-opacity:1;stroke:#ffffff;stroke-width:0;stroke-miterlimit:4;stroke-dasharray:none;stroke-opacity:1"
       d="m 195.99726,129.16929 c -10.03048,-0.30254 -18.6246,9.17125 -20.8748,18.4617 -3.44938,5.32856 -2.01915,14.12734 5.82013,13.51274 10.31901,-1.23102 11.75347,-14.65698 16.25643,-22.08261 1.6647,-2.96897 3.91417,-10.06559 -1.20176,-9.89183 z"
       id="path5931"
       inkscape:connector-curvature="0"
       sodipodi:nodetypes="ccccc" />
    <path
       style="opacity:1;fill:#f6d2a2;fill-opacity:1;stroke:#ffffff;stroke-width:0;stroke-miterlimit:4;stroke-dasharray:none;stroke-opacity:1"
       d="m 184.32285,111.85799 c -10.06175,2.20003 -19.83243,13.2128 -15.19337,22.75107 23.06121,1.12238 47.69865,1.69264 70.90214,-0.39639 12.31429,-3.14743 7.06357,-25.86604 -6.35507,-21.7155 -14.65924,3.73118 -32.22403,6.59982 -46.29571,-0.35756 -1.00168,-0.19769 -2.02972,-0.35659 -3.05799,-0.28162 z"
       id="path5935"
       inkscape:connector-curvature="0"
       sodipodi:nodetypes="cccccc" />
    <path
       style="opacity:1;fill:#8fe3e5;fill-opacity:1;stroke:#ffffff;stroke-width:0;stroke-miterlimit:4;stroke-dasharray:none;stroke-opacity:1"
       d="m 168.49465,16.396749 c -14.74179,1.253643 -30.83252,10.559625 -35.64678,25.095528 -0.11567,10.681684 15.65532,9.912408 19.97115,2.353461 3.7256,-4.661645 5.19809,-13.452034 13.27377,-11.222807 9.71199,-0.665042 16.83653,14.689598 26.72904,7.033161 7.13109,-4.07417 1.68761,-11.830865 -3.19139,-15.106927 -5.70249,-5.237303 -13.32949,-8.474006 -21.13579,-8.152416 z"
       id="path5937"
       inkscape:connector-curvature="0" />
    <path
       style="opacity:1;fill:#8fe3e5;fill-opacity:1;stroke:#ffffff;stroke-width:0;stroke-miterlimit:4;stroke-dasharray:none;stroke-opacity:1"
       d="m 264.33622,11.124147 c -8.71136,0.105932 -12.61377,8.842397 -14.85283,15.72403 -3.93604,1.121073 -11.92472,3.881807 -12.74438,-2.323212 -7.44658,-5.679198 -17.83011,0.975529 -26.05281,1.323494 -7.16427,1.15323 -15.37368,3.29762 -17.77664,11.054869 -5.53258,4.692491 -14.39238,3.380127 -17.87483,-3.082492 -7.57302,-9.168045 -21.24775,-1.009203 -22.83583,8.951021 -6.25201,5.797864 -16.15307,4.930365 -22.41839,-0.127051 -7.48096,-0.03473 -16.64819,0.385108 -22.66039,5.075976 -0.85415,5.867338 8.38193,5.591917 10.1822,10.92938 6.70217,10.381556 -0.15538,23.501721 -2.52656,34.282359 C 106.83917,116.28661 90.449078,134.7751 76.152956,154.28117 50.707399,186.89268 14.221402,214.1701 2.1339395,255.26103 c -0.8144838,10.30787 -3.7559863,23.51222 3.8871446,31.87157 4.3443969,2.49556 8.8332409,5.24929 14.5079729,4.14729 17.245204,0.34639 35.073808,-6.57513 44.313449,-21.81338 6.326448,-8.67887 11.863492,-17.89556 17.493664,-27.03155 37.76403,-4.36331 75.71312,-9.96877 112.597,-18.1809 10.88468,-27.75909 33.557,-49.91661 51.89589,-73.63574 12.91762,-16.01273 27.72867,-29.01606 40.01327,-45.51602 1.13458,-4.12491 6.94258,-6.605761 9.01455,-11.092733 14.24519,-18.104583 23.77115,-43.288635 16.53775,-66.09356 -2.55152,-6.552586 -10.37677,-16.132222 -17.70542,-9.770799 -6.09198,6.902566 -17.0195,3.858097 -21.77709,-3.094591 -2.47851,-1.85711 -5.29157,-4.077982 -8.5759,-3.92647 z m -4.42692,37.61042 c 12.58782,-0.955551 30.37254,8.703986 30.76015,22.959898 2.07904,9.90289 -3.70451,19.124943 -7.47529,27.941629 -1.06816,2.828566 -6.21189,3.938866 -8.89741,6.474846 -10.1874,7.33647 -29.90932,5.35481 -40.64024,1.32062 -5.3597,-4.57547 -13.89763,4.57496 -5.75056,7.14509 7.23478,1.61712 9.62272,13.846 1.44293,16.17173 -7.23195,2.89619 -17.84948,1.58762 -20.2263,11.31864 -4.07235,13.00104 -19.63535,20.98133 -32.3424,16.23925 -4.74786,-8.09798 6.84609,-17.01402 3.51494,-24.10642 -4.35903,0.17157 -11.95204,-1.5212 -10.09435,-7.9043 5.00785,-10.46778 -8.18768,-8.52336 -14.47773,-8.31879 -10.81191,0.48248 -27.33453,-2.45585 -26.21781,-16.57708 0.69877,-24.647802 25.6966,-48.128283 50.16514,-44.676048 10.09612,0.396938 27.5025,0.953082 28.32493,15.030897 1.55192,8.349545 -4.66792,18.382347 0.46585,25.81548 5.067,3.733171 13.22722,0.362792 11.00199,-6.642934 -2.65275,-22.799235 18.80254,-42.786138 40.44616,-42.192508 z"
       id="path5939"
       inkscape:connector-curvature="0"
       sodipodi:nodetypes="ccccccccccccccccccccccccccccccccccccccccccc" />
    <path
       style="opacity:1;fill:#8fe3e5;fill-opacity:1;stroke:#ffffff;stroke-width:0;stroke-miterlimit:4;stroke-dasharray:none;stroke-opacity:1"
       d="m 250.95052,16.808151 c -5.1021,2.867052 -0.44866,15.068025 4.4377,8.342992 1.51104,-3.131296 0.55424,-10.177671 -4.4377,-8.342992 z"
       id="path5941"
       inkscape:connector-curvature="0" />
    <path
       style="opacity:1;fill:#8fe3e5;fill-opacity:1;stroke:#ffffff;stroke-width:0;stroke-miterlimit:4;stroke-dasharray:none;stroke-opacity:1"
       d="M 266.608,-0.51611145 C 251.7928,-0.29991002 233.67183,12.55204 237.14133,28.832586 c 5.58054,6.113699 16.31688,-0.888255 14.6925,-8.712044 5.61835,-8.10501 17.93912,-7.462135 24.13962,-0.242001 4.18984,4.543738 16.20721,7.82294 17.01571,-1.191856 C 289.78153,8.5564845 277.5409,-1.1558721 266.608,-0.51611145 Z"
       id="path5943"
       inkscape:connector-curvature="0" />
    <path
       style="opacity:1;fill:#39ced1;fill-opacity:1;stroke:#ffffff;stroke-width:0;stroke-miterlimit:4;stroke-dasharray:none;stroke-opacity:1"
       d="M 101.39982,48.818863 C 83.528657,51.570294 72.694238,68.843719 62.495094,82.081931 59.169536,85.210844 55.138927,94.876959 63.175723,94.136617 80.937158,90.227093 99.761734,91.073114 117.2388,86.586179 123.57162,79.858257 121.61881,68.6344 119.89476,60.313921 117.47368,52.432168 109.11149,48.75081 101.39982,48.818863 Z"
       id="path5945"
       inkscape:connector-curvature="0" />
    <path
       style="opacity:1;fill:#39ced1;fill-opacity:1;stroke:#ffffff;stroke-width:0;stroke-miterlimit:4;stroke-dasharray:none;stroke-opacity:1"
       d="m 247.00135,214.90894 c -46.6158,10.15453 -99.9203,18.07668 -147.782569,23.74476 -8.350029,1.30845 -18.956247,0.60451 -22.764194,10.00897 -9.253976,14.95372 -18.936467,31.60474 -36.045129,38.56672 -4.507072,9.32914 10.750691,3.87165 15.891023,3.61678 53.614359,-9.96782 108.934839,-18.78588 160.109199,-38.30775 11.37538,-9.53272 21.23556,-20.09266 29.08673,-32.68217 0.63144,-2.25985 3.74831,-5.29355 1.50494,-4.94731 z"
       id="path5947"
       inkscape:connector-curvature="0"
       sodipodi:nodetypes="cccccccc" />
    <path
       style="opacity:1;fill:#000000;fill-opacity:1;stroke:#ffffff;stroke-width:0;stroke-miterlimit:4;stroke-dasharray:none;stroke-opacity:1"
       d="m 210.61194,96.296478 c -9.29663,0.238151 -24.03405,5.408972 -23.22001,16.704132 4.53079,8.41828 16.65033,5.29177 24.39069,4.51937 7.4001,-0.56916 20.62438,-7.02689 13.77592,-15.83595 -3.7159,-4.08299 -9.64035,-5.349545 -14.9466,-5.387552 z"
       id="path5949"
       inkscape:connector-curvature="0" />
    <path
       style="opacity:1;fill:#f6d2a2;fill-opacity:1;stroke:#ffffff;stroke-width:0;stroke-miterlimit:4;stroke-dasharray:none;stroke-opacity:1"
       d="m 153.13534,44.738281 10.033,-1.584159 7.39274,-1.584159 8.44885,-1.056105 -2.64027,-3.696371 -2.11221,-4.224423 -7.39274,-2.640264 -6.86469,2.112211 -3.16831,3.696371 -3.16832,5.280528 z"
       id="path5951"
       inkscape:connector-curvature="0" />
    <path
       style="opacity:1;fill:#f6d2a2;fill-opacity:1;stroke:#ffffff;stroke-width:0;stroke-miterlimit:4;stroke-dasharray:none;stroke-opacity:1"
       d="m 251.88122,25.728377 12.14522,-2.112212 6.86469,-1.584158 8.9769,1.584158 -5.28053,-5.280528 -4.75248,-4.224424 -6.86468,-2.112211 -7.9208,3.69637 -2.64026,6.336635 z"
       id="path5953"
       inkscape:connector-curvature="0" />
    <path
       style="opacity:1;fill:#39ced1;fill-opacity:1;stroke:#ffffff;stroke-width:0;stroke-miterlimit:4;stroke-dasharray:none;stroke-opacity:1"
       d="m 38.801735,286.96924 c -2.807133,0.65544 -7.513307,1.4518 -6.883252,5.35376 1.556938,3.73775 8.115952,-0.55554 10.705442,-2.38129 2.535251,-2.08307 -0.519394,-3.39508 -3.82219,-2.97247 z"
       id="path5955"
       inkscape:connector-curvature="0"
       sodipodi:nodetypes="cccc" />
    <path
       style="opacity:1;fill:#39ced1;fill-opacity:1;stroke:#ffffff;stroke-width:0;stroke-miterlimit:4;stroke-dasharray:none;stroke-opacity:1"
       d="m 4.9500713,248.96664 8.9101287,15.84023 10.890157,5.94008 14.850214,5.94009 18.810271,0 -11.880172,7.92011 -16.830242,3.96006 L 13.8602,289.55722 5.9400856,283.61714 1.9800285,274.70701 0,264.80687 Z"
       id="path5990"
       inkscape:connector-curvature="0" />
    <path
       style="opacity:1;fill:#ffffff;fill-opacity:1;stroke:#ffffff;stroke-width:0;stroke-miterlimit:4;stroke-dasharray:none;stroke-opacity:1"
       d="m 196.28487,129.91226 c -2.56926,0.29229 -5.39216,0.39506 -7.62292,1.80731 -2.02897,1.56903 -0.93962,5.12541 1.59986,5.34309 2.51343,0.0122 5.17826,0.48649 7.59007,-0.37729 2.85229,-1.29109 2.59862,-6.3579 -0.77018,-6.73639 -0.26379,-0.038 -0.53084,-0.0431 -0.79683,-0.0367 z"
       id="path6030"
       inkscape:connector-curvature="0" />
    <path
       style="opacity:1;fill:#ffffff;fill-opacity:1;stroke:#ffffff;stroke-width:0;stroke-miterlimit:4;stroke-dasharray:none;stroke-opacity:1"
       d="m 199.15076,129.80712 c -1.75723,0.98759 -2.6129,3.40676 -2.17379,5.29118 0.89524,2.80134 4.31658,1.96694 6.575,2.0662 2.16483,-0.0118 5.42739,0.45839 6.09135,-2.2815 0.68001,-2.21613 -1.53847,-3.76711 -3.45837,-4.19906 -2.2198,-0.76368 -4.69733,-1.36588 -7.03419,-0.87682 z"
       id="path6032"
       inkscape:connector-curvature="0" />
    <path
       style="opacity:1;fill:#f6d2a2;fill-opacity:1;stroke:#ffffff;stroke-width:0;stroke-miterlimit:4;stroke-dasharray:none;stroke-opacity:1"
       d="m 169.5327,128.6094 c -0.95407,0.65933 -0.36667,1.90449 -0.004,2.73713 0.52447,1.1864 1.51149,2.15943 2.79481,2.46647 0.66667,0.34072 1.71867,0.24421 1.87014,-0.62762 0.21099,-1.12784 -1.14045,-1.37467 -1.78408,-1.98054 -0.82121,-0.56588 -1.18603,-1.50486 -1.6213,-2.3502 -0.32452,-0.34638 -0.82477,-0.44383 -1.25548,-0.24524 z"
       id="path6044"
       inkscape:connector-curvature="0" />
    <path
       style="opacity:1;fill:#f6d2a2;fill-opacity:1;stroke:#ffffff;stroke-width:0;stroke-miterlimit:4;stroke-dasharray:none;stroke-opacity:1"
       d="m 170.40851,123.67375 c -0.74271,0.36387 -1.13518,1.42672 -0.8145,2.18648 0.47792,0.8571 1.77801,0.53958 1.98302,-0.36195 0.45969,-0.72675 0.1238,-1.93807 -0.86726,-1.86989 -0.10042,0.0151 -0.20084,0.0302 -0.30126,0.0454 z"
       id="path6046"
       inkscape:connector-curvature="0" />
    <path
       style="opacity:1;fill:#f6d2a2;fill-opacity:1;stroke:#ffffff;stroke-width:0;stroke-miterlimit:4;stroke-dasharray:none;stroke-opacity:1"
       d="m 226.71367,112.99589 c -1.03163,-0.0172 -1.37428,1.54206 -0.42577,1.95646 1.57229,0.66198 3.34539,1.03795 4.56507,2.32817 1.82141,1.82873 2.83444,4.44296 2.60362,7.02654 -0.006,2.53766 -1.91227,4.83401 -4.32995,5.49831 -2.93322,1.07757 -6.03126,1.58788 -9.04151,2.37328 -0.93792,0.39127 -0.64188,1.90502 0.36996,1.92364 4.36225,-0.1669 8.88937,-1.16545 12.44634,-3.81664 2.06631,-1.47424 3.22355,-3.93565 3.38721,-6.43342 0.48167,-4.8615 -3.27151,-9.52225 -7.94555,-10.58606 -0.53217,-0.1389 -1.07572,-0.2764 -1.62942,-0.27028 z"
       id="path6048"
       inkscape:connector-curvature="0" />
    <path
       style="opacity:1;fill:#f6d2a2;fill-opacity:1;stroke:#ffffff;stroke-width:0;stroke-miterlimit:4;stroke-dasharray:none;stroke-opacity:1"
       d="m 225.10622,112.96773 c -1.3962,0.11793 -2.8513,0.43036 -4.02668,1.22006 -0.79627,0.68192 -0.0155,2.0151 0.96256,1.78207 1.36045,-0.22344 2.77706,-0.33834 4.06778,-0.83358 0.97056,-0.51175 0.57609,-2.12557 -0.52318,-2.14584 -0.159,-0.0228 -0.3201,-0.0274 -0.48048,-0.0227 z"
       id="path6050"
       inkscape:connector-curvature="0" />
    <path
       style="opacity:1;fill:#f6d2a2;fill-opacity:1;stroke:#ffffff;stroke-width:0;stroke-miterlimit:4;stroke-dasharray:none;stroke-opacity:1"
       d="m 200.52356,128.70886 c -0.93295,0.0251 -2.34703,0.0503 -2.56968,1.1861 -0.15527,0.93862 0.89019,1.31178 1.64794,1.24675 2.54307,0.16075 5.0392,0.5836 7.55227,1.00503 1.05082,0.14459 1.57267,-1.39047 0.65306,-1.90832 -1.66932,-0.64842 -3.41478,-1.18394 -5.19474,-1.42988 -0.69328,-0.076 -1.39149,-0.10927 -2.08885,-0.0997 z"
       id="path6052"
       inkscape:connector-curvature="0" />
    <path
       style="opacity:1;fill:#f6d2a2;fill-opacity:1;stroke:#ffffff;stroke-width:0;stroke-miterlimit:4;stroke-dasharray:none;stroke-opacity:1"
       d="m 196.68558,129.03993 c -2.67018,0.0861 -5.47286,0.27662 -7.88668,1.52411 -0.91764,0.42959 -0.58521,1.96482 0.44414,1.9288 2.24972,-0.38383 4.46438,-1.03757 6.74989,-1.24604 0.80128,-0.0874 2.02187,-0.14788 2.02724,-1.22676 -0.0687,-0.69046 -0.67566,-1.06121 -1.33459,-0.98011 z"
       id="path6054"
       inkscape:connector-curvature="0" />
    <path
       style="opacity:1;fill:#ffffff;fill-opacity:1;stroke:#ffffff;stroke-width:0;stroke-miterlimit:4;stroke-dasharray:none;stroke-opacity:1"
       d="m 187.42783,133.8155 c -0.82471,0.18016 -2.09791,0.29185 -2.19855,1.31994 0.005,1.16085 1.39584,1.11219 2.24283,1.19329 0.97873,0.18383 1.7112,-0.96484 1.18578,-1.79569 -0.20743,-0.47218 -0.71947,-0.76077 -1.23006,-0.71754 z"
       id="path6056"
       inkscape:connector-curvature="0" />
    <path
       style="opacity:1;fill:#ffffff;fill-opacity:1;stroke:#ffffff;stroke-width:0;stroke-miterlimit:4;stroke-dasharray:none;stroke-opacity:1"
       d="m 176.5749,147.67623 c -1.05346,0.24316 -1.1328,1.53186 -1.54619,2.34673 -0.76774,2.23376 -1.62165,4.77792 -0.67208,7.08632 0.4596,0.88929 1.13771,1.8159 2.09184,2.1744 0.9454,0.25695 1.56543,-0.95472 1.03018,-1.69118 -1.08572,-1.9123 -0.99094,-4.23746 -0.5116,-6.31217 0.16155,-0.95916 0.8082,-1.85936 0.69403,-2.84297 -0.10459,-0.49186 -0.60595,-0.78225 -1.08618,-0.76113 z"
       id="path6058"
       inkscape:connector-curvature="0" />
    <path
       style="opacity:1;fill:#ffffff;fill-opacity:1;stroke:#ffffff;stroke-width:0;stroke-miterlimit:4;stroke-dasharray:none;stroke-opacity:1"
       d="m 177.48773,157.76053 c -1.03494,0.1297 -1.15299,1.66069 -0.21163,2.02639 1.55652,0.84391 3.41304,1.15183 5.15409,0.86947 1.04906,-0.30024 0.83777,-1.93269 -0.21844,-2.03753 -1.54044,-0.1806 -3.02724,-0.67054 -4.56144,-0.87059 l -0.11593,0.009 -0.0466,0.004 z"
       id="path6066"
       inkscape:connector-curvature="0" />
    <path
       style="opacity:1;fill:#ffffff;fill-opacity:1;stroke:#ffffff;stroke-width:0;stroke-miterlimit:4;stroke-dasharray:none;stroke-opacity:1"
       d="m 204.40855,149.51257 c -1.00735,0.30621 -1.56015,1.33469 -2.34748,1.97553 -2.94169,2.91502 -6.6663,4.89583 -10.55524,6.2361 -0.95087,0.20831 -1.11508,1.67973 -0.1526,1.98889 1.11466,0.20093 2.19921,-0.43482 3.25419,-0.7266 3.24914,-1.18911 6.51954,-2.73488 8.78458,-5.44279 0.73506,-0.93627 1.76779,-1.75738 2.11649,-2.92642 0.0249,-0.64868 -0.46321,-1.10704 -1.09994,-1.10471 z"
       id="path6068"
       inkscape:connector-curvature="0" />
    <path
       style="opacity:1;fill:#ffffff;fill-opacity:1;stroke:#ffffff;stroke-width:0;stroke-miterlimit:4;stroke-dasharray:none;stroke-opacity:1"
       d="m 160.86079,117.15404 c -1.03854,-0.0815 -1.56315,1.42702 -0.619,1.94306 0.85692,0.54701 2.17693,-0.35195 1.65968,-1.35199 -0.19463,-0.38045 -0.61767,-0.60898 -1.04068,-0.59107 z"
       id="path6070"
       inkscape:connector-curvature="0" />
    <path
       style="opacity:1;fill:#ffffff;fill-opacity:1;stroke:#ffffff;stroke-width:0;stroke-miterlimit:4;stroke-dasharray:none;stroke-opacity:1"
       d="m 162.8579,116.80435 c -0.74891,-0.0612 -1.86201,0.14468 -1.8193,1.10754 -0.001,1.05601 1.24875,1.12869 2.03093,1.09597 0.90671,-0.0773 2.10761,0.22264 2.71238,-0.64307 0.41495,-0.79585 -0.36724,-1.63564 -1.1869,-1.53461 -0.57829,-0.0318 -1.15814,-0.0317 -1.73711,-0.0258 z"
       id="path6072"
       inkscape:connector-curvature="0" />
    <path
       style="opacity:1;fill:#ffffff;fill-opacity:1;stroke:#ffffff;stroke-width:0;stroke-miterlimit:4;stroke-dasharray:none;stroke-opacity:1"
       d="m 158.86006,117.15654 c -1.05848,-0.0697 -1.50422,1.51878 -0.52045,1.96236 0.78476,0.4269 2.04827,-0.21206 1.70597,-1.18221 -0.0838,-0.54622 -0.68267,-0.81679 -1.18552,-0.78015 z"
       id="path6074"
       inkscape:connector-curvature="0" />
    <path
       style="opacity:1;fill:#ffffff;fill-opacity:1;stroke:#ffffff;stroke-width:0;stroke-miterlimit:4;stroke-dasharray:none;stroke-opacity:1"
       d="m 156.42311,117.15313 c -0.73105,-0.1038 -1.73516,0.2517 -1.61129,1.14864 0.13661,1.04502 1.32873,0.92881 2.11652,0.90803 0.8273,0.17379 1.72757,-0.61477 1.32436,-1.4541 -0.35929,-0.71493 -1.16544,-0.58853 -1.82959,-0.60257 z"
       id="path6076"
       inkscape:connector-curvature="0" />
    <path
       style="opacity:1;fill:#ffffff;fill-opacity:1;stroke:#ffffff;stroke-width:0;stroke-miterlimit:4;stroke-dasharray:none;stroke-opacity:1"
       d="m 219.10514,87.38823 c -1.00073,0.163743 -0.96881,1.263803 -0.92282,2.044335 0.0664,1.620297 0.22046,3.267094 0.61425,4.832871 0.33957,1.031436 1.9783,0.615352 1.89373,-0.438446 0.20109,-1.844787 -0.47606,-3.624522 -0.4775,-5.464846 -0.0344,-0.559906 -0.55998,-0.993158 -1.10766,-0.973914 z"
       id="path6078"
       inkscape:connector-curvature="0" />
    <path
       style="opacity:1;fill:#229294;fill-opacity:1;stroke:#ffffff;stroke-width:0;stroke-miterlimit:4;stroke-dasharray:none;stroke-opacity:1"
       d="m 77.19742,65.937823 43.01664,-3.02279 -3.95288,-8.138282 -6.74315,-3.95288 -6.97567,-1.627657 -3.952884,0.232523 -6.97567,3.02279 -5.580536,5.348014 -6.045582,4.417925 -4.650447,3.487835 z"
       id="path6080"
       inkscape:connector-curvature="0" />
    <path
       style="opacity:1;fill:#f0b463;fill-opacity:1;stroke:#ffffff;stroke-width:0;stroke-miterlimit:4;stroke-dasharray:none;stroke-opacity:1"
       d="m 170.43888,125.69607 3.25532,3.48783 3.25531,1.16261 4.1854,-0.23252 6.2781,-0.23252 6.51063,-1.16261 5.34801,-0.93009 5.34802,0.23252 4.88297,0.69757 2.55774,0.93009 5.34802,0.69756 4.41792,0.23253 5.11549,-0.46505 4.41793,-0.69756 3.25531,-2.32523 -2.55774,4.1854 -5.34802,2.32523 -8.83585,0.93009 -6.2781,0.23252 -5.11549,-2.55775 -6.04558,-0.93009 -7.2082,-0.23252 -5.81306,1.86018 -6.2781,1.86018 -4.41792,0 -4.88297,-0.46505 -2.0927,-2.32522 -1.39514,-3.02279 1.62766,-5.11549 z"
       id="path6082"
       inkscape:connector-curvature="0" />
    <path
       style="opacity:1;fill:#f0b463;fill-opacity:1;stroke:#ffffff;stroke-width:0;stroke-miterlimit:4;stroke-dasharray:none;stroke-opacity:1"
       d="m 154.85989,41.988021 4.41792,-4.417924 3.95288,-1.860179 3.72036,-1.162612 3.02279,-0.232522 5.34801,0.465045 -2.32522,-2.325224 -5.34802,-1.860179 -5.11549,0.465045 -3.25531,1.860179 -2.79027,3.02279 -2.55774,3.95288 z"
       id="path6084"
       inkscape:connector-curvature="0" />
    <path
       style="opacity:1;fill:#f0b463;fill-opacity:1;stroke:#ffffff;stroke-width:0;stroke-miterlimit:4;stroke-dasharray:none;stroke-opacity:1"
       d="m 252.98432,24.548845 c 0.23252,-1.395134 3.95288,-6.045581 3.95288,-6.045581 l 3.48783,-1.162612 2.79027,-0.930089 3.25531,-0.232522 2.79027,0 4.65045,0.697567 -2.55775,-3.022791 -4.65044,-1.627656 -5.1155,0.232522 -3.95288,2.557746 -3.02279,2.790268 -1.86018,3.022791 -1.16261,3.720357 z"
       id="path6086"
       inkscape:connector-curvature="0" />
    <path
       style="opacity:1;fill:#39ced1;fill-opacity:1;stroke:#ffffff;stroke-width:0;stroke-miterlimit:4;stroke-dasharray:none;stroke-opacity:1"
       d="m 143.46629,47.103513 1.86018,-3.95288 2.55774,-5.348014 4.65045,-5.580536 5.58054,-3.022791 6.04558,-0.697567 5.11549,-0.232522 5.11549,4.417924 -5.81306,-1.627656 -6.51062,0.232522 -3.25531,1.860179 -3.0228,2.790268 -2.32522,5.348014 -1.62766,3.720358 -3.72035,1.860179 z"
       id="path6088"
       inkscape:connector-curvature="0" />
    <path
       style="opacity:1;fill:#39ced1;fill-opacity:1;stroke:#ffffff;stroke-width:0;stroke-miterlimit:4;stroke-dasharray:none;stroke-opacity:1"
       d="m 245.77612,28.501725 0.69757,-6.510626 2.55775,-5.580536 3.02279,-3.022791 5.11549,-2.325223 5.11549,-1.6276567 5.58054,0.6975667 5.11549,5.115492 -4.1854,-1.627656 -6.74315,-0.232523 -4.1854,1.395134 -3.95288,3.022791 -3.02279,7.208193 -0.93009,3.720357 z"
       id="path6090"
       inkscape:connector-curvature="0" />
    <path
       style="opacity:1;fill:#d3d7cf;fill-opacity:1;stroke:#ffffff;stroke-width:0;stroke-miterlimit:4;stroke-dasharray:none;stroke-opacity:1"
       d="m 208.1075,68.960614 -2.79026,9.998461 -1.62766,5.115492 -3.02279,5.348014 -0.69757,1.162612 -2.79027,3.720357 -4.41792,4.650447 -5.34802,4.882973 -4.41792,4.41792 -5.11549,3.02279 -7.20819,2.55775 -9.06838,2.0927 -5.81306,0.46504 -6.97567,0.46505 -9.53341,-0.93009 8.83585,4.1854 11.85864,0 7.67323,0 5.34802,-0.46504 6.51062,-5.34802 7.44072,-3.25531 5.58054,-7.67324 4.1854,-2.79027 6.51062,-2.557742 2.79027,-3.255313 1.16261,-5.115492 1.62766,-7.90576 0.93009,-4.882969 0,-3.95288 z"
       id="path6092"
       inkscape:connector-curvature="0" />
    <path
       style="opacity:1;fill:#d3d7cf;fill-opacity:1;stroke:#ffffff;stroke-width:0;stroke-miterlimit:4;stroke-dasharray:none;stroke-opacity:1"
       d="m 288.79276,67.798002 -0.23252,7.673238 -0.69757,6.743148 -3.72036,7.90576 -3.02279,5.348014 -3.25531,4.185402 -6.51063,3.487836 -6.97567,2.55775 -9.53341,3.02279 -9.06838,0.69756 -9.06837,-0.46504 9.3009,2.79027 10.23098,0.23252 12.78873,-2.0927 8.13828,-3.72036 6.04558,-6.97567 4.41793,-5.348015 2.79027,-7.440715 0.23252,-9.300894 -0.69757,-6.045581 z"
       id="path6094"
       inkscape:connector-curvature="0" />
    <path
       style="opacity:1;fill:#d3d7cf;fill-opacity:1;stroke:#ffffff;stroke-width:0;stroke-miterlimit:4;stroke-dasharray:none;stroke-opacity:1"
       d="m 179.9723,140.5775 16.74161,-4.1854 13.95134,4.65044 1.39513,-4.41792 -4.88297,-3.95288 -8.3708,-1.39514 -8.13828,1.16262 -7.44072,1.86017 -2.32522,2.55775 z"
       id="path6096"
       inkscape:connector-curvature="0" />
  </g>
  <g
     inkscape:label="lines"
     inkscape:groupmode="layer"
     id="layer1"
     transform="translate(-12.655766,-30.142399)">
    <path
       style="fill:#000000"
       d="m 34.864747,324.19204 c -0.001,-0.57033 -1.99139,-1.17895 -4.42224,-1.35245 -6.41821,-0.45811 -12.5674,-3.37241 -15.02276,-7.11977 -3.07901,-4.69916 -3.68383,-18.1653 -1.31723,-29.32785 1.38707,-6.5424 4.20598,-13.33453 9.5975,-23.125 10.16555,-18.45968 18.53796,-29.39238 37.41911,-48.86191 13.46818,-13.88788 21.79973,-23.71402 34.31897,-40.47539 1.34521,-1.80104 7.197233,-9.42896 13.004493,-16.95096 16.58795,-21.48594 23.86179,-38.56583 23.90619,-56.13474 0.0349,-13.796386 -5.44234,-19.563916 -18.57913,-19.563916 -5.37342,0 -7.04708,0.6869 -12.85265,5.27498 -3.671113,2.90123 -9.043673,7.71178 -11.939023,10.6901 -5.61239,5.773216 -17.37226,23.690056 -16.27159,24.790716 0.36218,0.36218 2.95655,0.0397 5.76526,-0.71659 2.80871,-0.7563 12.56861,-1.91262 21.688673,-2.56959 9.12007,-0.65697 18.54697,-1.76265 20.94868,-2.45706 5.72039,-1.65393 7.82745,-1.59517 7.22854,0.2016 -0.57239,1.71716 -0.83285,1.76204 -20.34528,3.50566 -21.645723,1.93424 -29.968493,3.26957 -34.515073,5.5377 -2.20867,1.10183 -4.29371,1.72537 -4.63343,1.38565 -0.88271,-0.88271 3.47077,-10.28987 7.81789,-16.89316 6.92348,-10.516826 13.81148,-17.882486 23.423813,-25.048206 7.99235,-5.95806 10.91265,-7.38083 17.5,-8.52601 4.34874,-0.75601 12.12554,-2.33454 17.28179,-3.50785 9.22617,-2.09941 9.46462,-2.25361 15.01928,-9.71311 4.6504,-6.24511 7.29171,-8.40166 15,-12.24701 7.6912,-3.83683 10.69009,-4.66592 16.85572,-4.66005 9.22613,0.009 17.07977,3.32574 22.27488,9.40774 2.09096,2.44792 4.51124,4.1164 5.44914,3.7565 2.43695,-0.93515 28.849,-6.74608 34.93095,-7.68518 4.66177,-0.71981 5.29347,-1.2583 6.60282,-5.62855 3.43339,-11.45959 23.71679,-19.1267 39.21438,-14.82298 3.39122,0.94175 6.03356,3.03359 9.375,7.42184 4.37788,5.74941 4.99875,6.1147 10.50665,6.18168 5.34467,0.065 6.22723,0.53324 10.14726,5.38368 6.47657,8.0138 7.12392,9.9149 7.12392,20.92107 0,12.40757 -2.82629,25.66028 -7.60095,35.641436 -3.30686,6.9128 -21.93445,31.83425 -35.91328,48.04761 -13.9539,16.18444 -34.7907,41.457 -46.12122,55.93954 -21.52954,27.51882 -24.57221,32.01663 -26.71663,39.49381 l -1.04022,3.627 7.75865,-0.8494 c 9.44477,-1.034 27.6147,-5.00956 37.68887,-8.2463 4.08662,-1.313 7.91562,-2.38726 8.5089,-2.38726 1.41216,0 -10.4344,15.25962 -22.57046,29.07313 -7.62027,8.67353 -10.65747,11.23422 -14.61865,12.32513 -2.75,0.75736 -6.125,1.85236 -7.5,2.43334 -21.99452,9.29342 -55.03968,17.60966 -103.75,26.11003 -11.6875,2.03957 -25.251243,4.55067 -30.141643,5.5802 -20.03402,4.21763 -50.48157,7.9207 -50.48587,6.14015 z m 27.0896,-4.26223 c 5.38335,-0.74415 17.94416,-2.94363 27.91291,-4.8877 9.96875,-1.94409 22.624993,-4.22605 28.124993,-5.07103 22.84467,-3.50969 71.8267,-15.09224 87.5,-20.69071 8.9375,-3.19245 17.74958,-6.07419 19.58239,-6.40384 2.1612,-0.38871 6.8321,-4.39901 13.29005,-11.41042 10.7175,-11.63603 20.72999,-23.88913 20.04828,-24.5347 -0.23139,-0.21913 -7.17072,1.18478 -15.42072,3.11981 -8.25,1.93501 -20.90625,4.4668 -28.125,5.62617 -7.21875,1.15939 -19.03125,3.14548 -26.25,4.41355 -18.34775,3.22302 -26.99743,4.52193 -58.125,8.7285 -4.8125,0.65037 -14.65625,1.75815 -21.87499,2.46175 -14.818673,1.44438 -13.374063,0.41302 -21.929333,15.65627 -6.50662,11.5931 -16.16595,23.1153 -22.95483,27.38183 -2.46996,1.55228 -7.44397,3.79868 -11.05334,4.992 -6.6184,2.18817 -9.14439,4.1378 -3.53791,2.73067 1.66353,-0.41753 7.42916,-1.36799 12.8125,-2.11215 z m -10.83709,-2.7396 c 2.40625,-1.0742 6.22284,-2.63859 8.48132,-3.47643 8.0088,-2.97104 21.69218,-19.86957 29.55237,-36.49622 2.58643,-5.47109 4.04782,-7.19638 6.11958,-7.22464 2.89695,-0.0395 31.483933,-2.97144 47.096723,-4.83029 14.50184,-1.72656 35.4665,-4.95789 50.89591,-7.84466 l 14.02089,-2.62326 1.4432,-4.51983 c 0.79375,-2.4859 2.60877,-6.48857 4.03335,-8.89482 2.9107,-4.91645 23.11006,-31.61997 32.70004,-43.2294 3.45489,-4.18242 11.90662,-14.50372 18.78162,-22.93622 6.875,-8.43251 14.10978,-17.10427 16.07731,-19.27061 5.86106,-6.45329 17.01159,-20.47052 27.87685,-35.04372 11.59664,-15.55416 14.7169,-23.333676 16.7837,-41.845566 1.54937,-13.87743 0.25925,-19.62181 -5.95058,-26.49533 -4.8638,-5.38365 -10.41229,-6.78502 -10.41229,-2.6298 0,2.97954 -4.98367,5.20064 -11.66911,5.20064 -4.75332,0 -5.78765,-0.58161 -10.0034,-5.625 -4.09495,-4.89887 -5.33034,-5.625 -9.57,-5.625 -6.84844,0 -11.50749,4.18676 -11.50749,10.34097 0,4.33852 -0.31257,4.71416 -4.96521,5.96698 -2.73086,0.73535 -6.75274,1.16376 -8.9375,0.95202 -3.5206,-0.34119 -3.92676,-0.77449 -3.57188,-3.8106 0.39756,-3.4013 0.35758,-3.42039 -5.625,-2.68643 -5.33472,0.65448 -24.82332,4.64844 -30.71291,6.29425 -1.29272,0.36124 -2.1875,1.81796 -2.1875,3.56132 0,8.64636 -19.3123,11.20584 -21.94577,2.90849 -1.41101,-4.4457 -6.01111,-6.33692 -11.69249,-4.80708 -4.98029,1.34104 -9.38891,6.54372 -8.56182,10.10389 1.12977,4.86305 -15.75963,9.6601 -20.11948,5.71448 -1.24207,-1.12406 -2.63454,-1.66752 -3.09437,-1.20768 -0.45984,0.45983 -0.83607,-0.10144 -0.83607,-1.24727 0,-2.52915 0.69832,-2.5236 -12.40258,-0.0986 -11.0065,2.03733 -16.00811,4.26525 -9.57536,4.26525 2.42462,0 5.0342,1.51214 8.37501,4.85294 4.56412,4.56413 4.85293,5.30149 4.85293,12.39004 0,19.549186 -7.6105,38.913296 -22.86635,58.180926 -4.26725,5.38941 -10.00864,12.80586 -12.758643,16.481 -14.43667,19.2934 -26.51938,33.62347 -36.86355,43.72009 -22.64567,22.10375 -43.521,54.98538 -46.42434,73.125 -2.18126,13.62812 0.81086,27.5 5.93165,27.5 0.95218,0 1.73124,0.52125 1.73124,1.15835 0,0.63708 0.98437,1.44807 2.1875,1.80218 4.21752,1.24133 20.98057,-0.1165 25.3125,-2.05038 z M 188.61725,190.88286 c -4.1713,-2.14953 -4.0048,-8.476 0.44713,-16.99017 1.81659,-3.47415 3.30287,-6.60822 3.30287,-6.96462 0,-0.35641 -1.6875,-0.64801 -3.75,-0.64801 -3.81621,0 -8.75,-3.705 -8.75,-6.57075 0,-0.86392 0.48249,-3.25454 1.07219,-5.3125 l 1.07218,-3.74175 -13.25968,-0.019 c -11.68152,-0.0168 -13.99137,-0.39334 -19.40726,-3.16378 -8.82177,-4.51267 -11.00658,-9.21506 -9.43092,-20.29841 1.54131,-10.84189 5.74278,-19.06399 13.92034,-27.241556 12.89449,-12.89448 27.82574,-16.97072 49.69954,-13.56797 8.88368,1.38196 11.35288,2.29533 14.83691,5.4882 3.61361,3.31163 4.26995,4.84412 4.84667,11.316456 0.49943,5.60521 0.0286,9.36758 -1.874,14.97441 -1.39758,4.11856 -2.44203,7.57195 -2.321,7.6742 0.121,0.10225 2.82651,0.43826 6.0122,0.7467 5.7221,0.55402 5.78115,0.52167 4.88105,-2.6742 -4.01387,-14.25153 7.59445,-34.655836 23.87215,-41.960836 14.25586,-6.39765 31.19905,-5.36989 41.80652,2.53595 8.74262,6.51594 11.92153,25.707736 6.2015,37.439896 -4.41715,9.05988 -7.86524,12.54815 -16.30338,16.49339 -6.85715,3.20605 -8.73213,3.506 -21.875,3.4995 -11.13649,-0.005 -15.24834,-0.48389 -18.25155,-2.12344 -2.91904,-1.59359 -4.23125,-1.76165 -5.3125,-0.6804 -2.15524,2.15524 -1.73744,3.43595 1.12086,3.43595 4.33919,0 8.69319,5.497 8.69319,10.97529 0,7.05607 -3.81689,10.11822 -14.60855,11.71993 l -8.65075,1.28397 -2.94867,7.42363 c -3.81722,9.61035 -10.06518,15.35883 -18.70795,17.21237 -8.35298,1.7914 -12.47712,1.72515 -16.33408,-0.26239 z m 10.81403,-4.9153 c 4.77092,-8.3869 10.86939,-22.17075 10.13434,-22.9058 -0.41964,-0.41964 -3.75844,0.10787 -7.41955,1.17212 -6.3503,1.84609 -6.8434,2.30294 -10.71769,9.92976 -4.58214,9.02032 -5.05253,12.66475 -1.87363,14.51629 4.16741,2.42729 7.46853,1.5207 9.87653,-2.71237 z m 14.03402,-1.02282 c 3.82254,-2.82611 10.15195,-13.99498 10.15195,-17.9141 0,-1.68103 -9.4674,-5.44986 -10.66978,-4.24747 -0.86157,0.86156 -11.83022,24.88749 -11.83022,25.9131 0,1.8199 8.16933,-0.66206 12.34805,-3.75153 z m -9.5848,-23.67673 c 6.03884,-1.54855 10.67822,-1.26297 21.61175,1.33035 8.95795,2.12473 19.2778,-0.48303 21.66334,-5.47419 4.01855,-8.40786 -6.01732,-16.69164 -13.93609,-11.50306 -1.54538,1.01257 -6.92702,2.42497 -11.9592,3.13866 -9.8796,1.40117 -17.3632,0.2448 -20.1505,-3.11369 -2.18853,-2.63704 -6.05516,-2.31667 -10.73403,0.88934 -6.88793,4.71969 -9.95328,12.25411 -6.44602,15.84391 1.76744,1.80903 10.44798,1.3255 19.95075,-1.11132 z m -14.36227,-16.62108 c 2.67212,-1.85179 5.41217,-3.36687 6.08901,-3.36687 0.67684,0 3.33064,-2.51232 5.89735,-5.58293 3.05905,-3.6596 6.34479,-6.08568 9.53766,-7.04229 2.67901,-0.80265 5.19191,-2.36845 5.58423,-3.47957 5.19831,-14.72256 5.77351,-21.94468 2.30134,-28.895206 -2.64997,-5.30463 -7.77122,-7.28409 -22.18557,-8.57514 -17.00751,-1.52332 -29.90617,2.68562 -41.04055,13.391856 -7.48445,7.19665 -11.60586,15.05051 -13.24762,25.24495 -2.66935,16.57511 5.6123,22.61959 30.12196,21.98495 10.80948,-0.27989 12.59614,-0.66794 16.94219,-3.67975 z m -13.71348,-5.47854 c -4.8959,-1.27942 -0.76582,-12.88833 4.58527,-12.88833 6.10456,0 7.55582,4.83818 3.13651,10.45642 -2.56389,3.25946 -3.46686,3.54385 -7.72178,2.43191 z m 54.08788,5.42395 c 18.12725,-7.64533 3.60055,-20.10195 -16.82825,-14.43019 -5.38584,1.4953 -11.94713,7.58804 -11.94713,11.09397 0,1.23359 1.79659,3.13506 4.0625,4.29965 4.83252,2.48374 17.73192,1.98085 24.71288,-0.96343 z m 44.70147,-5.20043 c 14.11095,-3.32687 19.96212,-7.5077 25.34797,-18.11185 6.49251,-12.78307 1.78147,-31.832776 -9.19158,-37.167386 -13.09345,-6.36545 -22.83574,-6.53768 -36.22938,-0.64047 -14.43584,6.35609 -24.51832,23.720416 -22.51595,38.777666 0.55269,4.1562 1.50595,5.81453 4.28643,7.45701 1.96662,1.16171 3.57567,2.77359 3.57567,3.58196 0,2.68937 13.76412,6.99302 25,7.81679 1.03124,0.0756 5.40833,-0.69556 9.72684,-1.71372 z m -12.31847,-8.20348 c -2.33319,-2.33318 -2.41146,-2.86296 -0.78504,-5.3125 1.26221,-1.90099 3.07898,-2.72087 6.02913,-2.72087 3.74786,0 4.26972,0.41462 4.64227,3.68835 0.72385,6.36075 -5.24662,8.98475 -9.88636,4.34502 z M 161.13339,75.646704 c 2.54559,-1.31637 4.04293,-3.37228 4.97379,-6.82923 1.7157,-6.37163 5.27106,-8.78742 12.93261,-8.78742 5.54058,0 6.54646,0.47063 10.68673,5 3.61652,3.95643 5.45731,5 8.81966,5 4.72127,0 8.82107,-2.95598 8.82107,-6.36004 0,-2.4024 -8.16097,-9.57787 -14.62542,-12.8593 -13.27379,-6.73792 -36.27079,2.80857 -44.3139,18.39555 -2.38739,4.62657 -2.3949,4.86382 -0.20659,6.52274 3.00573,2.27859 8.41326,2.24412 12.91205,-0.0823 z m 100.29999,-18.42915 c 1.12417,-0.85937 2.21606,-3.51329 2.42641,-5.89759 0.48758,-5.52656 6.63543,-10.03991 13.67583,-10.03991 4.07175,0 5.7278,0.92426 10.93235,6.1015 5.29823,5.27042 6.69733,6.03587 10.2718,5.61968 6.11572,-0.71207 6.71133,-2.09599 3.25706,-7.56791 -7.40439,-11.7293 -17.18924,-15.97083 -29.54063,-12.80527 -11.9081,3.05196 -19.93837,10.84157 -21.01396,20.38421 l -0.65011,5.76779 4.29865,0 c 2.36426,0 5.21842,-0.70312 6.3426,-1.5625 z"
       id="path4201"
       inkscape:connector-curvature="0" />
  </g>
</svg>
